{"accessors":[{"bufferView":0,"byteOffset":0,"componentType":5126,"count":82,"max":[0.013774977313999999,0.010000002280373916,0.0],"min":[0.0,-0.014,-0.0113161889116],"type":"VEC3"},{"bufferView":0,"byteOffset":984,"componentType":5126,"count":28,"max":[0.013774977313999999,-0.0025,0.0113161889116],"min":[0.0,-0.014,-7.1054273576e-18],"type":"VEC3"},{"bufferView":0,"byteOffset":1320,"componentType":5126,"count":87,"max":[0.011987641376776708,0.010000000230383333,-0.0113161889116],"min":[-6.261033640896922e-18,-0.0120059384608,-0.0185028308805],"type":"VEC3"},{"bufferView":0,"byteOffset":2364,"componentType":5126,"count":38,"max":[0.009797958971130002,0.010000002280373916,0.014735379820200002],"min":[0.0,0.00999999693067,-0.014735381984600001],"type":"VEC3"},{"bufferView":0,"byteOffset":2820,"componentType":5126,"count":18,"max":[0.013774977313999999,0.01,0.0113161889116],"min":[0.00664398662889,0.0025,-7.1054273576e-18],"type":"VEC3"},{"bufferView":0,"byteOffset":3036,"componentType":5126,"count":9,"max":[0.0149880246769,0.0025,-0.00302371327612],"min":[0.0130752497086,-0.0025,-0.006811348951],"type":"VEC3"},{"bufferView":0,"byteOffset":3144,"componentType":5126,"count":59,"max":[0.0117427662126,-0.0025,0.0185028308805],"min":[-6.261033640896923e-18,-0.0120059384608,0.0113161889116],"type":"VEC3"},{"bufferView":0,"byteOffset":3852,"componentType":5126,"count":33,"max":[0.004303651582603294,0.00433526051282,-0.0185028308805],"min":[-5.353632842034587e-19,-0.00433526051282,-0.0191569132367],"type":"VEC3"},{"bufferView":0,"byteOffset":4248,"componentType":5126,"count":91,"max":[0.010582923110414722,0.01,-0.010781289039],"min":[-5.536231591533621e-18,-0.010604552673000001,-0.017069600761800004],"type":"VEC3"},{"bufferView":0,"byteOffset":5340,"componentType":5126,"count":63,"max":[0.012497767907283056,0.01,0.0],"min":[-3.950740877918642e-18,-0.0125,-0.010781289039],"type":"VEC3"},{"bufferView":0,"byteOffset":6096,"componentType":5126,"count":64,"max":[0.012497767907283056,0.01,0.010781289039],"min":[0.0,-0.0125,-7.1054273576e-18],"type":"VEC3"},{"bufferView":0,"byteOffset":6864,"componentType":5126,"count":91,"max":[0.010582923110414722,0.01,0.017069600761800004],"min":[-5.536231591533621e-18,-0.010604552673000001,0.010781289039],"type":"VEC3"},{"bufferView":0,"byteOffset":7956,"componentType":5126,"count":46,"max":[0.0117427662126,0.01,0.0185028308805],"min":[-1.5367205352423894e-18,0.0025,0.0113161889116],"type":"VEC3"},{"bufferView":0,"byteOffset":8508,"componentType":5126,"count":11,"max":[0.00354181926614,0.00433526051282,0.0189426805923],"min":[-6.851857274690554e-19,0.00249999991709,0.0185028308805],"type":"VEC3"},{"bufferView":0,"byteOffset":8640,"componentType":5126,"count":11,"max":[0.00354181926614,-0.00249999995,0.0189426805866],"min":[-2.1709092018038566e-18,-0.00433526051282,0.0185028308805],"type":"VEC3"},{"bufferView":0,"byteOffset":8772,"componentType":5126,"count":33,"max":[0.0038643272336654694,0.0038927094685000005,-0.017069600761800004],"min":[-4.807124553049186e-19,-0.0038927094685000005,-0.0176569132367],"type":"VEC3"},{"bufferView":0,"byteOffset":9168,"componentType":5126,"count":33,"max":[0.0038643272336654694,0.0038927094685000005,0.0176569132367],"min":[-1.523066006475478e-18,-0.0038927094685000005,0.017069600761800004],"type":"VEC3"},{"bufferView":0,"byteOffset":9564,"componentType":5126,"count":35,"max":[1.6867201187608639e-18,0.01,0.0],"min":[-6.261033640896922e-18,-0.014,-0.0191569132367],"type":"VEC3"},{"bufferView":0,"byteOffset":9984,"componentType":5126,"count":38,"max":[1.686720118760864e-18,0.01,0.0499],"min":[-6.261033640896923e-18,-0.014,0.0],"type":"VEC3"},{"bufferView":0,"byteOffset":10440,"componentType":5126,"count":8,"max":[0.00766115934977,0.0025,0.0510977691958],"min":[0.0,-0.0025,0.0499],"type":"VEC3"},{"bufferView":0,"byteOffset":10536,"componentType":5126,"count":4,"max":[0.0120478875196,0.0025,0.0510977691958],"min":[0.00766115934977,-0.0025,0.037596808125400008],"type":"VEC3"},{"bufferView":0,"byteOffset":10584,"componentType":5126,"count":28,"max":[0.010321723252,0.0025,0.028097355155445135],"min":[0.00532172325201,-0.0025,0.025615582970199999],"type":"VEC3"},{"bufferView":0,"byteOffset":10920,"componentType":5126,"count":28,"max":[0.010321723252,0.0025,0.025615582970199999],"min":[0.00532172325201,-0.0025,0.023133810784954867],"type":"VEC3"},{"bufferView":0,"byteOffset":11256,"componentType":5126,"count":28,"max":[0.00750590288129,0.0025,0.045875745286245137],"min":[0.00250590288129,-0.0025,0.043393973101],"type":"VEC3"},{"bufferView":0,"byteOffset":11592,"componentType":5126,"count":28,"max":[0.00750590288129,0.0025,0.043393973101],"min":[0.00250590288129,-0.0025,0.040912200915754867],"type":"VEC3"},{"bufferView":0,"byteOffset":11928,"componentType":5126,"count":74,"max":[0.017295848234699999,-0.00249999995,0.0510977691958],"min":[0.0,-0.0025000063374914598,-0.006811348951],"type":"VEC3"},{"bufferView":0,"byteOffset":12816,"componentType":5126,"count":74,"max":[0.017295848234699999,0.0025000063374914598,0.0510977691958],"min":[0.0,0.00249999991709,-0.006811348951],"type":"VEC3"},{"bufferView":0,"byteOffset":13704,"componentType":5126,"count":4,"max":[0.017295848234699999,0.0025,0.037596808125400008],"min":[0.0120478875196,-0.0025,0.0214452458289],"type":"VEC3"},{"bufferView":0,"byteOffset":13752,"componentType":5126,"count":4,"max":[0.017295848234699999,0.0025,0.0214452458289],"min":[0.0149880246769,-0.0025,-0.00302371327612],"type":"VEC3"},{"bufferView":1,"byteOffset":0,"componentType":5126,"count":82,"type":"VEC3"},{"bufferView":1,"byteOffset":984,"componentType":5126,"count":28,"type":"VEC3"},{"bufferView":1,"byteOffset":1320,"componentType":5126,"count":87,"type":"VEC3"},{"bufferView":1,"byteOffset":2364,"componentType":5126,"count":38,"type":"VEC3"},{"bufferView":1,"byteOffset":2820,"componentType":5126,"count":18,"type":"VEC3"},{"bufferView":1,"byteOffset":3036,"componentType":5126,"count":9,"type":"VEC3"},{"bufferView":1,"byteOffset":3144,"componentType":5126,"count":59,"type":"VEC3"},{"bufferView":1,"byteOffset":3852,"componentType":5126,"count":33,"type":"VEC3"},{"bufferView":1,"byteOffset":4248,"componentType":5126,"count":91,"type":"VEC3"},{"bufferView":1,"byteOffset":5340,"componentType":5126,"count":63,"type":"VEC3"},{"bufferView":1,"byteOffset":6096,"componentType":5126,"count":64,"type":"VEC3"},{"bufferView":1,"byteOffset":6864,"componentType":5126,"count":91,"type":"VEC3"},{"bufferView":1,"byteOffset":7956,"componentType":5126,"count":46,"type":"VEC3"},{"bufferView":1,"byteOffset":8508,"componentType":5126,"count":11,"type":"VEC3"},{"bufferView":1,"byteOffset":8640,"componentType":5126,"count":11,"type":"VEC3"},{"bufferView":1,"byteOffset":8772,"componentType":5126,"count":33,"type":"VEC3"},{"bufferView":1,"byteOffset":9168,"componentType":5126,"count":33,"type":"VEC3"},{"bufferView":1,"byteOffset":9564,"componentType":5126,"count":35,"type":"VEC3"},{"bufferView":1,"byteOffset":9984,"componentType":5126,"count":38,"type":"VEC3"},{"bufferView":1,"byteOffset":10440,"componentType":5126,"count":8,"type":"VEC3"},{"bufferView":1,"byteOffset":10536,"componentType":5126,"count":4,"type":"VEC3"},{"bufferView":1,"byteOffset":10584,"componentType":5126,"count":28,"type":"VEC3"},{"bufferView":1,"byteOffset":10920,"componentType":5126,"count":28,"type":"VEC3"},{"bufferView":1,"byteOffset":11256,"componentType":5126,"count":28,"type":"VEC3"},{"bufferView":1,"byteOffset":11592,"componentType":5126,"count":28,"type":"VEC3"},{"bufferView":1,"byteOffset":11928,"componentType":5126,"count":74,"type":"VEC3"},{"bufferView":1,"byteOffset":12816,"componentType":5126,"count":74,"type":"VEC3"},{"bufferView":1,"byteOffset":13704,"componentType":5126,"count":4,"type":"VEC3"},{"bufferView":1,"byteOffset":13752,"componentType":5126,"count":4,"type":"VEC3"},{"bufferView":2,"byteOffset":0,"componentType":5123,"count":375,"type":"SCALAR"},{"bufferView":2,"byteOffset":752,"componentType":5123,"count":108,"type":"SCALAR"},{"bufferView":2,"byteOffset":968,"componentType":5123,"count":408,"type":"SCALAR"},{"bufferView":2,"byteOffset":1784,"componentType":5123,"count":108,"type":"SCALAR"},{"bufferView":2,"byteOffset":2000,"componentType":5123,"count":60,"type":"SCALAR"},{"bufferView":2,"byteOffset":2120,"componentType":5123,"count":21,"type":"SCALAR"},{"bufferView":2,"byteOffset":2164,"componentType":5123,"count":291,"type":"SCALAR"},{"bufferView":2,"byteOffset":2748,"componentType":5123,"count":132,"type":"SCALAR"},{"bufferView":2,"byteOffset":3012,"componentType":5123,"count":429,"type":"SCALAR"},{"bufferView":2,"byteOffset":3872,"componentType":5123,"count":279,"type":"SCALAR"},{"bufferView":2,"byteOffset":4432,"componentType":5123,"count":285,"type":"SCALAR"},{"bufferView":2,"byteOffset":5004,"componentType":5123,"count":429,"type":"SCALAR"},{"bufferView":2,"byteOffset":5864,"componentType":5123,"count":207,"type":"SCALAR"},{"bufferView":2,"byteOffset":6280,"componentType":5123,"count":27,"type":"SCALAR"},{"bufferView":2,"byteOffset":6336,"componentType":5123,"count":27,"type":"SCALAR"},{"bufferView":2,"byteOffset":6392,"componentType":5123,"count":132,"type":"SCALAR"},{"bufferView":2,"byteOffset":6656,"componentType":5123,"count":132,"type":"SCALAR"},{"bufferView":2,"byteOffset":6920,"componentType":5123,"count":99,"type":"SCALAR"},{"bufferView":2,"byteOffset":7120,"componentType":5123,"count":108,"type":"SCALAR"},{"bufferView":2,"byteOffset":7336,"componentType":5123,"count":18,"type":"SCALAR"},{"bufferView":2,"byteOffset":7372,"componentType":5123,"count":6,"type":"SCALAR"},{"bufferView":2,"byteOffset":7384,"componentType":5123,"count":78,"type":"SCALAR"},{"bufferView":2,"byteOffset":7540,"componentType":5123,"count":78,"type":"SCALAR"},{"bufferView":2,"byteOffset":7696,"componentType":5123,"count":78,"type":"SCALAR"},{"bufferView":2,"byteOffset":7852,"componentType":5123,"count":78,"type":"SCALAR"},{"bufferView":2,"byteOffset":8008,"componentType":5123,"count":228,"type":"SCALAR"},{"bufferView":2,"byteOffset":8464,"componentType":5123,"count":228,"type":"SCALAR"},{"bufferView":2,"byteOffset":8920,"componentType":5123,"count":6,"type":"SCALAR"},{"bufferView":2,"byteOffset":8932,"componentType":5123,"count":6,"type":"SCALAR"}],"asset":{"generator":"Open CASCADE Technology 7.6 [dev.opencascade.org]","version":"2.0"},"bufferViews":[{"buffer":0,"byteLength":13800,"byteOffset":0,"byteStride":12,"target":34962},{"buffer":0,"byteLength":13800,"byteOffset":13800,"byteStride":12,"target":34962},{"buffer":0,"byteLength":8944,"byteOffset":27600,"target":34963}],"buffers":[{"byteLength":36544,"uri":"Unnamed-turgo_bucket.bin"}],"materials":[{"name":"mat_0","pbrMetallicRoughness":{"baseColorFactor":[0.6038273572921753,0.6038273572921753,0.6038273572921753,1.0]},"doubleSided":true}],"meshes":[{"name":"Part1","primitives":[{"attributes":{"NORMAL":29,"POSITION":0},"indices":58,"material":0,"mode":4},{"attributes":{"NORMAL":30,"POSITION":1},"indices":59,"material":0,"mode":4},{"attributes":{"NORMAL":31,"POSITION":2},"indices":60,"material":0,"mode":4},{"attributes":{"NORMAL":32,"POSITION":3},"indices":61,"material":0,"mode":4},{"attributes":{"NORMAL":33,"POSITION":4},"indices":62,"material":0,"mode":4},{"attributes":{"NORMAL":34,"POSITION":5},"indices":63,"material":0,"mode":4},{"attributes":{"NORMAL":35,"POSITION":6},"indices":64,"material":0,"mode":4},{"attributes":{"NORMAL":36,"POSITION":7},"indices":65,"material":0,"mode":4},{"attributes":{"NORMAL":37,"POSITION":8},"indices":66,"material":0,"mode":4},{"attributes":{"NORMAL":38,"POSITION":9},"indices":67,"material":0,"mode":4},{"attributes":{"NORMAL":39,"POSITION":10},"indices":68,"material":0,"mode":4},{"attributes":{"NORMAL":40,"POSITION":11},"indices":69,"material":0,"mode":4},{"attributes":{"NORMAL":41,"POSITION":12},"indices":70,"material":0,"mode":4},{"attributes":{"NORMAL":42,"POSITION":13},"indices":71,"material":0,"mode":4},{"attributes":{"NORMAL":43,"POSITION":14},"indices":72,"material":0,"mode":4},{"attributes":{"NORMAL":44,"POSITION":15},"indices":73,"material":0,"mode":4},{"attributes":{"NORMAL":45,"POSITION":16},"indices":74,"material":0,"mode":4},{"attributes":{"NORMAL":46,"POSITION":17},"indices":75,"material":0,"mode":4},{"attributes":{"NORMAL":47,"POSITION":18},"indices":76,"material":0,"mode":4},{"attributes":{"NORMAL":48,"POSITION":19},"indices":77,"material":0,"mode":4},{"attributes":{"NORMAL":49,"POSITION":20},"indices":78,"material":0,"mode":4},{"attributes":{"NORMAL":50,"POSITION":21},"indices":79,"material":0,"mode":4},{"attributes":{"NORMAL":51,"POSITION":22},"indices":80,"material":0,"mode":4},{"attributes":{"NORMAL":52,"POSITION":23},"indices":81,"material":0,"mode":4},{"attributes":{"NORMAL":53,"POSITION":24},"indices":82,"material":0,"mode":4},{"attributes":{"NORMAL":54,"POSITION":25},"indices":83,"material":0,"mode":4},{"attributes":{"NORMAL":55,"POSITION":26},"indices":84,"material":0,"mode":4},{"attributes":{"NORMAL":56,"POSITION":27},"indices":85,"material":0,"mode":4},{"attributes":{"NORMAL":57,"POSITION":28},"indices":86,"material":0,"mode":4}]}],"nodes":[{"mesh":0,"name":"Part1"}],"scene":0,"scenes":[{"nodes":[0]}]}